<svg width="38" height="38" viewBox="0 0 38 38" fill="none" xmlns="http://www.w3.org/2000/svg">
<path d="M30.1667 30C28.1317 30 26.5 31.6317 26.5 33.6667C26.5 34.6391 26.8863 35.5717 27.5739 36.2594C28.2616 36.947 29.1942 37.3333 30.1667 37.3333C31.1391 37.3333 32.0718 36.947 32.7594 36.2594C33.447 35.5717 33.8333 34.6391 33.8333 33.6667C33.8333 31.6317 32.1833 30 30.1667 30ZM0.833328 0.666656V4.33332H4.49999L11.1 18.2483L8.60666 22.74C8.33166 23.2533 8.16666 23.8583 8.16666 24.5C8.16666 25.4725 8.55297 26.4051 9.2406 27.0927C9.92824 27.7803 10.8609 28.1667 11.8333 28.1667H33.8333V24.5H12.6033C12.4818 24.5 12.3652 24.4517 12.2792 24.3657C12.1933 24.2798 12.145 24.1632 12.145 24.0417C12.145 23.95 12.1633 23.8767 12.2 23.8217L13.85 20.8333H27.5083C28.8833 20.8333 30.0933 20.0633 30.7167 18.945L37.28 7.08332C37.4083 6.78999 37.5 6.47832 37.5 6.16666C37.5 5.68043 37.3068 5.21411 36.963 4.87029C36.6192 4.52648 36.1529 4.33332 35.6667 4.33332H8.55166L6.82833 0.666656M11.8333 30C9.79833 30 8.16666 31.6317 8.16666 33.6667C8.16666 34.6391 8.55297 35.5717 9.2406 36.2594C9.92824 36.947 10.8609 37.3333 11.8333 37.3333C12.8058 37.3333 13.7384 36.947 14.4261 36.2594C15.1137 35.5717 15.5 34.6391 15.5 33.6667C15.5 31.6317 13.85 30 11.8333 30Z" fill="#FEDD58"/>
</svg>
