<svg width="110" height="63" viewBox="0 0 110 63" fill="none" xmlns="http://www.w3.org/2000/svg">
<rect x="4.20947" y="12.8178" width="60.6174" height="4.84939" rx="2.42469" transform="rotate(49.2681 4.20947 12.8178)" fill="#FEDD58"/>
<rect x="99.0093" y="61.0271" width="60.6174" height="4.84939" rx="2.42469" transform="rotate(180 99.0093 61.0271)" fill="#FEDD58"/>
<g clip-path="url(#clip0_2_5623)">
<path d="M51.2888 105.216C78.0641 98.0412 93.9538 70.5195 86.7794 43.7442C79.605 16.9689 52.0833 1.07926 25.308 8.25368C-1.46731 15.4281 -17.357 42.9498 -10.1825 69.7251C-3.00812 96.5004 24.5136 112.39 51.2888 105.216Z" fill="#8E8E8E"/>
</g>
<path d="M41.5934 50.312C40.0854 50.312 38.7334 50.0693 37.5374 49.584C36.3587 49.0987 35.4921 48.414 34.9374 47.53L37.3554 45.086C37.8927 45.7793 38.5687 46.2993 39.3834 46.646C40.1981 46.9753 41.0127 47.14 41.8274 47.14C42.8154 47.14 43.5607 46.906 44.0634 46.438C44.5834 45.9527 44.8434 45.294 44.8434 44.462C44.8434 43.8553 44.6701 43.4133 44.3234 43.136C43.9941 42.8413 43.4654 42.6073 42.7374 42.434L40.9434 42.018C39.6261 41.7233 38.6641 41.1773 38.0574 40.38C37.4681 39.5653 37.1734 38.5947 37.1734 37.468C37.1734 36.5667 37.3294 35.752 37.6414 35.024C37.9707 34.296 38.4387 33.672 39.0454 33.152C39.6521 32.632 40.3887 32.2333 41.2554 31.956C42.1221 31.6787 43.0927 31.54 44.1674 31.54C45.4674 31.54 46.6461 31.7653 47.7034 32.216C48.7607 32.6667 49.5494 33.2907 50.0694 34.088L47.5474 36.402C47.1487 35.8473 46.6461 35.4227 46.0394 35.128C45.4501 34.816 44.7654 34.66 43.9854 34.66C43.0321 34.66 42.3214 34.8767 41.8534 35.31C41.3854 35.7433 41.1514 36.324 41.1514 37.052C41.1514 37.572 41.3074 37.9707 41.6194 38.248C41.9487 38.5253 42.5207 38.768 43.3354 38.976L45.0514 39.418C47.5821 40.0593 48.8474 41.5933 48.8474 44.02C48.8474 44.956 48.6827 45.814 48.3534 46.594C48.0414 47.3567 47.5734 48.0153 46.9494 48.57C46.3254 49.1247 45.5627 49.558 44.6614 49.87C43.7601 50.1647 42.7374 50.312 41.5934 50.312ZM52.7632 30.76H56.5592L55.0772 39.782H55.2072C55.7099 38.69 56.2906 37.832 56.9492 37.208C57.6252 36.584 58.5006 36.272 59.5752 36.272C60.2339 36.272 60.7886 36.376 61.2392 36.584C61.7072 36.792 62.0886 37.078 62.3832 37.442C62.6779 37.7887 62.8946 38.196 63.0332 38.664C63.1719 39.132 63.2412 39.626 63.2412 40.146C63.2412 40.5273 63.2152 40.9173 63.1632 41.316C63.1286 41.7147 63.0592 42.226 62.9552 42.85L61.7592 50H57.9632L59.2372 42.382C59.2719 42.1393 59.3066 41.8967 59.3412 41.654C59.3932 41.394 59.4192 41.0993 59.4192 40.77C59.4192 40.5967 59.3932 40.4147 59.3412 40.224C59.2892 40.0333 59.2026 39.86 59.0812 39.704C58.9599 39.548 58.7952 39.4267 58.5872 39.34C58.3966 39.236 58.1539 39.184 57.8592 39.184C57.4086 39.184 57.0186 39.288 56.6892 39.496C56.3599 39.704 56.0479 40.0073 55.7532 40.406C55.5626 40.666 55.3286 41.03 55.0512 41.498C54.7912 41.9487 54.6179 42.4513 54.5312 43.006L53.3612 50H49.5652L52.7632 30.76ZM70.5111 50.312C68.5177 50.312 67.0444 49.8093 66.0911 48.804C65.1377 47.7813 64.6611 46.3773 64.6611 44.592C64.6611 43.344 64.8517 42.2087 65.2331 41.186C65.6144 40.1633 66.1431 39.288 66.8191 38.56C67.5124 37.832 68.3444 37.2687 69.3151 36.87C70.2857 36.4713 71.3691 36.272 72.5651 36.272C73.2411 36.272 73.8737 36.35 74.4631 36.506C75.0697 36.662 75.5984 36.896 76.0491 37.208C76.4997 37.5027 76.8551 37.884 77.1151 38.352C77.3751 38.8027 77.5051 39.34 77.5051 39.964C77.5051 40.5013 77.3924 41.0387 77.1671 41.576C76.9417 42.1133 76.4997 42.6073 75.8411 43.058C75.1997 43.4913 74.2811 43.864 73.0851 44.176C71.9064 44.4707 70.3637 44.6527 68.4571 44.722C68.4397 44.826 68.4311 44.9127 68.4311 44.982C68.4311 45.034 68.4311 45.0947 68.4311 45.164C68.4311 45.892 68.6304 46.4467 69.0291 46.828C69.4277 47.2093 70.0864 47.4 71.0051 47.4C71.3691 47.4 71.6984 47.3653 71.9931 47.296C72.3051 47.2267 72.5997 47.1053 72.8771 46.932C73.1717 46.7413 73.4577 46.5073 73.7351 46.23C74.0297 45.9353 74.3504 45.5627 74.6971 45.112L77.0631 46.646C76.7164 47.1487 76.3351 47.6253 75.9191 48.076C75.5204 48.5093 75.0611 48.8993 74.5411 49.246C74.0211 49.5753 73.4317 49.8353 72.7731 50.026C72.1144 50.2167 71.3604 50.312 70.5111 50.312ZM72.1751 38.95C71.3431 38.95 70.6324 39.2013 70.0431 39.704C69.4537 40.1893 69.0377 41.0127 68.7951 42.174L68.7171 42.538C69.9131 42.4687 70.8491 42.356 71.5251 42.2C72.2184 42.044 72.7297 41.862 73.0591 41.654C73.4057 41.446 73.6224 41.2207 73.7091 40.978C73.7957 40.7353 73.8391 40.51 73.8391 40.302C73.8391 39.4007 73.2844 38.95 72.1751 38.95ZM84.5149 50.312C83.4403 50.312 82.6429 50.0347 82.1229 49.48C81.6029 48.908 81.3429 48.1453 81.3429 47.192C81.3429 46.8973 81.3603 46.6113 81.3949 46.334C81.4296 46.0567 81.4989 45.6493 81.6029 45.112L83.7089 33.724H79.7569L80.2509 30.76H88.0249L84.9829 47.244L85.3729 47.374L89.0129 43.656L91.0929 45.502L89.5069 47.322C88.6229 48.31 87.7909 49.0553 87.0109 49.558C86.2483 50.0607 85.4163 50.312 84.5149 50.312ZM96.2828 55.512C95.8148 55.512 95.3901 55.434 95.0088 55.278C94.6274 55.122 94.2721 54.9053 93.9428 54.628C93.6134 54.3507 93.2928 54.0127 92.9808 53.614C92.6688 53.2327 92.3481 52.7993 92.0188 52.314L90.9528 50.78L93.5528 48.986L96.2308 52.522L96.5428 52.392L98.6748 39.548H94.4368L94.9308 36.584H99.1688L99.5068 34.556C99.6974 33.4293 100.165 32.5193 100.911 31.826C101.656 31.1153 102.731 30.76 104.135 30.76H108.763L108.269 33.724H103.433L102.965 36.584H107.801L107.307 39.548H102.445L100.469 51.378C100.226 52.834 99.7408 53.8827 99.0128 54.524C98.2848 55.1827 97.3748 55.512 96.2828 55.512Z" fill="white"/>
<path d="M14.7779 9.456H21.4139C23.1125 9.456 24.4099 9.86667 25.3059 10.688C26.2019 11.5093 26.6499 12.6013 26.6499 13.964C26.6499 16.6893 25.2965 18.388 22.5899 19.06L22.5619 19.2C23.5885 19.4053 24.3725 19.816 24.9139 20.432C25.4739 21.048 25.7539 21.8787 25.7539 22.924C25.7539 23.8387 25.5952 24.6693 25.2779 25.416C24.9792 26.1627 24.5405 26.8067 23.9619 27.348C23.3832 27.8707 22.6739 28.2813 21.8339 28.58C21.0125 28.86 20.0885 29 19.0619 29H11.5019L14.7779 9.456ZM18.1659 26.088C19.0992 26.088 19.8365 25.9293 20.3779 25.612C20.9192 25.2947 21.2552 24.7533 21.3859 23.988L21.4979 23.316C21.5352 23.148 21.5632 22.9707 21.5819 22.784C21.6192 22.5973 21.6379 22.448 21.6379 22.336C21.6379 21.6827 21.4512 21.216 21.0779 20.936C20.7045 20.656 20.0979 20.516 19.2579 20.516H16.9619L16.0379 26.088H18.1659ZM19.0339 17.744C20.0232 17.744 20.7699 17.604 21.2739 17.324C21.7779 17.0253 22.1045 16.456 22.2539 15.616L22.3659 14.944C22.3845 14.8507 22.4032 14.72 22.4219 14.552C22.4405 14.3653 22.4499 14.2067 22.4499 14.076C22.4499 13.4413 22.2445 13.0027 21.8339 12.76C21.4419 12.4987 20.8725 12.368 20.1259 12.368H18.3339L17.4379 17.744H19.0339ZM33.3309 29.336C31.3523 29.336 29.8216 28.7853 28.7389 27.684C27.6563 26.564 27.1149 25.0427 27.1149 23.12C27.1149 21.7387 27.3109 20.4973 27.7029 19.396C28.1136 18.2947 28.6736 17.3613 29.3829 16.596C30.1109 15.8307 30.9696 15.2427 31.9589 14.832C32.9669 14.4213 34.0776 14.216 35.2909 14.216C37.2696 14.216 38.8003 14.776 39.8829 15.896C40.9656 16.9973 41.5069 18.5093 41.5069 20.432C41.5069 21.8133 41.3016 23.0547 40.8909 24.156C40.4989 25.2573 39.9389 26.1907 39.2109 26.956C38.5016 27.7213 37.6429 28.3093 36.6349 28.72C35.6456 29.1307 34.5443 29.336 33.3309 29.336ZM33.6389 26.284C34.5349 26.284 35.2629 26.0133 35.8229 25.472C36.4016 24.9307 36.7749 24.156 36.9429 23.148L37.3069 20.964C37.3443 20.796 37.3723 20.6093 37.3909 20.404C37.4283 20.18 37.4469 19.984 37.4469 19.816C37.4469 18.9573 37.2229 18.3227 36.7749 17.912C36.3456 17.4827 35.7483 17.268 34.9829 17.268C34.0869 17.268 33.3496 17.5387 32.7709 18.08C32.2109 18.6213 31.8469 19.396 31.6789 20.404L31.3149 22.588C31.2776 22.756 31.2403 22.952 31.2029 23.176C31.1843 23.3813 31.1749 23.568 31.1749 23.736C31.1749 24.5947 31.3896 25.2387 31.8189 25.668C32.2669 26.0787 32.8736 26.284 33.6389 26.284ZM48.72 29.336C46.7413 29.336 45.2107 28.7853 44.128 27.684C43.0453 26.564 42.504 25.0427 42.504 23.12C42.504 21.7387 42.7 20.4973 43.092 19.396C43.5027 18.2947 44.0627 17.3613 44.772 16.596C45.5 15.8307 46.3587 15.2427 47.348 14.832C48.356 14.4213 49.4667 14.216 50.68 14.216C52.6587 14.216 54.1893 14.776 55.272 15.896C56.3547 16.9973 56.896 18.5093 56.896 20.432C56.896 21.8133 56.6907 23.0547 56.28 24.156C55.888 25.2573 55.328 26.1907 54.6 26.956C53.8907 27.7213 53.032 28.3093 52.024 28.72C51.0347 29.1307 49.9333 29.336 48.72 29.336ZM49.028 26.284C49.924 26.284 50.652 26.0133 51.212 25.472C51.7907 24.9307 52.164 24.156 52.332 23.148L52.696 20.964C52.7333 20.796 52.7613 20.6093 52.78 20.404C52.8173 20.18 52.836 19.984 52.836 19.816C52.836 18.9573 52.612 18.3227 52.164 17.912C51.7347 17.4827 51.1373 17.268 50.372 17.268C49.476 17.268 48.7387 17.5387 48.16 18.08C47.6 18.6213 47.236 19.396 47.068 20.404L46.704 22.588C46.6667 22.756 46.6293 22.952 46.592 23.176C46.5733 23.3813 46.564 23.568 46.564 23.736C46.564 24.5947 46.7787 25.2387 47.208 25.668C47.656 26.0787 48.2627 26.284 49.028 26.284ZM60.8051 8.28H64.8931L63.2971 17.996H63.4651C63.9504 16.9133 64.5944 16.0173 65.3971 15.308C66.1997 14.58 67.2171 14.216 68.4491 14.216C69.6437 14.216 70.5677 14.552 71.2211 15.224C71.8744 15.8773 72.2011 16.68 72.2011 17.632C72.2011 18.976 71.7811 20.068 70.9411 20.908C70.1011 21.748 68.8691 22.4107 67.2451 22.896L68.4211 25.976L68.8411 26.06L71.1371 23.82L73.0971 25.752L71.6411 27.32C71.0437 27.9733 70.4277 28.4773 69.7931 28.832C69.1584 29.168 68.4677 29.336 67.7211 29.336C66.8251 29.336 66.1251 29.084 65.6211 28.58C65.1171 28.076 64.7064 27.376 64.3891 26.48L62.9891 22.644C64.6691 22.1587 65.9384 21.636 66.7971 21.076C67.6744 20.516 68.1131 19.788 68.1131 18.892C68.1131 18.4067 67.9451 18.0147 67.6091 17.716C67.2917 17.4173 66.8344 17.268 66.2371 17.268C65.8824 17.268 65.5277 17.3613 65.1731 17.548C64.8184 17.716 64.4264 18.0707 63.9971 18.612C63.7171 18.9667 63.4557 19.368 63.2131 19.816C62.9891 20.2453 62.8211 20.796 62.7091 21.468L61.4491 29H57.3611L60.8051 8.28Z" fill="white"/>
<defs>
<clipPath id="clip0_2_5623">
<rect width="64.0119" height="57.7077" fill="white" transform="translate(27.7161 -2.4325) rotate(-15)"/>
</clipPath>
</defs>
</svg>
